<svg height='100px' width='100px'  fill="#e91e63" xmlns="http://www.w3.org/2000/svg" xmlns:xlink="http://www.w3.org/1999/xlink" version="1.1" x="0px" y="0px" viewBox="0 0 110 110" enable-background="new 0 0 110 110" xml:space="preserve"><path d="M75.654,59.553c0,11.131-9.025,20.156-20.159,20.156c-11.133,0-20.158-9.025-20.158-20.156  c0-11.134,9.025-20.158,20.158-20.158C66.629,39.395,75.654,48.419,75.654,59.553z M22.978,72.963c-3.122,0-5.653,2.533-5.653,5.656  c0,3.121,2.531,5.653,5.653,5.653c3.123,0,5.653-2.532,5.653-5.653C28.631,75.496,26.101,72.963,22.978,72.963z M88.248,72.963  c-3.123,0-5.654,2.533-5.654,5.656c0,3.121,2.531,5.653,5.654,5.653S93.9,81.74,93.9,78.619  C93.9,75.496,91.371,72.963,88.248,72.963z M47.693,82.136C38.067,78.811,31.6,69.735,31.6,59.553c0-1.258,0.102-2.533,0.302-3.793  l0.012-0.114c0,0,0.011-0.254,0.011-0.386c0-1.899-1.558-3.462-3.521-3.484c-2.488,0-3.343,2.125-3.442,3.194  c-0.226,1.519-0.34,3.061-0.34,4.583c0,4.539,1.017,8.9,2.833,12.855l3.784,0.847c0.163,0.036,0.302,0.139,0.385,0.284  c0.083,0.145,0.1,0.317,0.049,0.476l-1.176,3.626c3.612,4.991,8.706,8.915,14.791,11.048c0.194,0.086,0.702,0.279,1.349,0.279  c0,0,0,0,0,0c0.96,0,2.669-0.432,3.331-3.322C50.411,83.706,48.688,82.507,47.693,82.136z M79.172,74.015  c-0.051-0.158-0.033-0.331,0.05-0.476c0.082-0.146,0.222-0.248,0.385-0.284l3.94-0.882c1.81-3.948,2.822-8.299,2.822-12.82  c0-1.762-0.159-3.565-0.477-5.379c-0.199-1.008-1.203-2.951-3.498-2.803c-1.951,0.123-3.422,1.62-3.422,3.482  c0,0.252,0.03,0.506,0.081,0.721c0.224,1.337,0.337,2.675,0.337,3.979c0,10.141-6.432,19.204-16.062,22.576  c-0.896,0.378-2.389,1.508-2.302,3.341c0.092,1.927,1.622,3.437,3.483,3.437c0.382,0,0.757-0.062,1.119-0.187l0.235-0.001  l0.137-0.137c5.896-2.134,10.84-5.969,14.387-10.818L79.172,74.015z M55.494,16.3c-3.122,0-5.652,2.531-5.652,5.654  c0,3.122,2.53,5.653,5.652,5.653s5.654-2.531,5.654-5.653C61.148,18.832,58.616,16.3,55.494,16.3z M75.63,36.165l-0.077-0.074  c-4.771-4.081-10.661-6.589-16.854-7.238l-2.782,3.025c-0.112,0.122-0.27,0.191-0.436,0.191c-0.001,0-0.002,0-0.003,0  c-0.167-0.001-0.325-0.072-0.437-0.195l-2.725-3.023c-6.173,0.641-12.044,3.126-16.768,7.148c-0.533,0.402-1.363,1.434-1.097,2.75  c0.403,1.995,1.763,3.285,3.464,3.286h0.001c1.031,0,2.04-0.667,2.299-0.852c4.279-3.563,9.705-5.525,15.278-5.525  c8.346,0,15.42,5.629,15.538,5.721c0.599,0.429,1.3,0.656,2.026,0.656c1.895,0,3.425-1.517,3.484-3.454  C76.584,37.218,75.729,36.269,75.63,36.165z"></path></svg>